<?xml version="1.0" standalone="no"?>
<!DOCTYPE svg PUBLIC "-//W3C//DTD SVG 20010904//EN"
 "http://www.w3.org/TR/2001/REC-SVG-20010904/DTD/svg10.dtd">
<svg version="1.0" xmlns="http://www.w3.org/2000/svg"
 width="2362.000000pt" height="2362.000000pt" viewBox="0 0 2362.000000 2362.000000"
 preserveAspectRatio="xMidYMid meet">
<metadata>
Created by potrace 1.14, written by Peter Selinger 2001-2017
</metadata>
<g transform="translate(0.000000,2362.000000) scale(0.100000,-0.100000)"
fill="#000000" stroke="none">
<path d="M12820 23008 c-25 -5 -59 -21 -77 -34 -17 -13 -102 -49 -187 -78
l-155 -55 -27 21 c-44 35 -137 56 -208 46 -72 -10 -373 -110 -431 -143 -56
-32 -130 -99 -155 -141 -12 -19 -31 -67 -41 -107 -17 -64 -18 -100 -14 -337
l4 -265 -29 260 c-35 320 -53 418 -86 467 -54 83 -169 122 -291 99 -73 -14
-143 -49 -166 -81 -14 -20 -15 -19 -38 15 -33 48 -102 90 -174 105 -54 10 -69
9 -144 -10 -132 -33 -286 -121 -358 -203 -30 -34 -30 -34 -144 -41 l-114 -7
-25 40 c-33 54 -97 97 -172 116 -142 37 -260 -23 -380 -193 -14 -20 -31 -24
-147 -37 -214 -24 -278 -48 -332 -124 -45 -61 -53 -128 -39 -295 14 -171 28
-233 67 -289 43 -63 102 -99 201 -123 84 -20 88 -20 153 -4 37 10 72 21 79 25
8 5 11 -1 8 -21 -3 -25 -9 -29 -93 -51 -1265 -336 -2330 -834 -3360 -1571
-463 -332 -824 -640 -1256 -1071 -295 -296 -492 -514 -734 -816 -1169 -1457
-1903 -3191 -2135 -5040 -90 -725 -99 -1564 -25 -2297 297 -2900 1846 -5527
4260 -7220 553 -388 1075 -679 1799 -1001 l28 -13 -53 -40 c-113 -86 -171
-221 -144 -336 7 -31 23 -72 36 -90 32 -45 622 -660 651 -677 33 -21 117 -41
168 -41 25 0 75 8 112 18 127 32 222 124 513 492 76 96 142 179 146 184 4 4
83 -10 176 -32 596 -144 1240 -233 1888 -262 305 -13 765 -14 915 -1 69 5 195
15 280 21 467 34 1015 115 1454 216 169 38 178 39 209 20 12 -8 45 -19 73 -26
94 -21 197 21 265 109 34 43 35 44 239 106 113 35 269 86 346 114 78 28 146
51 150 50 5 0 29 -27 54 -60 68 -90 155 -153 241 -174 68 -17 75 -17 151 1 90
20 148 51 284 154 247 186 504 432 668 639 l121 154 180 109 c1278 774 2355
1803 3180 3037 872 1306 1416 2761 1614 4321 56 439 75 760 75 1265 0 427 -7
605 -40 960 -184 2003 -989 3933 -2285 5485 -809 970 -1769 1761 -2889 2385
-183 102 -578 298 -775 385 -814 359 -1683 611 -2569 745 -93 14 -173 28 -177
31 -4 2 -14 32 -20 66 -11 53 -19 67 -65 114 -29 29 -63 55 -76 57 -13 3 4 3
37 0 72 -6 171 17 225 53 82 55 138 188 120 286 -29 153 -128 386 -210 495
-54 70 -132 126 -198 141 -61 14 -70 14 -132 0z m137 -129 c63 -31 108 -89
179 -234 76 -154 104 -238 104 -312 0 -71 -23 -118 -73 -151 -37 -25 -47 -26
-121 -23 -108 6 -745 6 -750 0 -7 -6 -30 -369 -24 -374 3 -3 25 2 49 10 100
36 292 88 418 114 150 32 185 29 233 -16 33 -32 41 -80 64 -374 18 -232 15
-293 -17 -334 -23 -28 -78 -59 -125 -69 -17 -4 -120 4 -230 18 -109 13 -251
28 -315 31 l-116 7 -6 -129 c-9 -178 -9 -363 1 -363 23 0 244 68 471 145 199
67 261 92 284 115 53 52 169 54 218 3 23 -24 35 -60 78 -241 56 -233 57 -244
38 -320 -19 -69 -60 -127 -111 -151 -37 -18 -54 -20 -176 -15 -74 4 -283 8
-465 11 l-330 4 -1 -89 c-1 -182 -65 -253 -230 -254 -98 -1 -126 33 -156 191
-19 102 -22 111 -42 109 -110 -13 -191 77 -166 185 10 45 28 68 86 104 35 23
42 32 38 53 -5 27 -54 471 -54 492 -1 9 -5 8 -13 -3 -24 -31 -65 -49 -126 -55
-60 -7 -62 -8 -56 -33 2 -14 37 -222 75 -461 81 -501 81 -493 3 -580 -33 -36
-57 -54 -91 -63 -66 -20 -108 -6 -189 62 -143 120 -162 131 -215 131 -65 0
-112 23 -140 69 -36 57 -37 289 -4 620 30 289 33 406 13 414 -8 3 -39 8 -70
12 l-57 7 -1 -103 c-1 -57 -4 -243 -8 -414 -7 -350 -10 -363 -87 -418 -89 -62
-199 -38 -258 56 -28 46 -29 50 -62 439 -18 216 -33 394 -34 395 0 0 -22 4
-49 8 -64 9 -104 34 -125 80 -45 94 -1 190 112 244 l34 16 -6 65 c-13 135 -58
515 -62 519 -2 2 -45 -8 -96 -22 -51 -15 -118 -29 -149 -33 -31 -4 -63 -10
-69 -14 -16 -10 -7 -70 60 -410 27 -135 51 -267 55 -295 3 -27 62 -295 131
-595 118 -514 124 -547 114 -591 -12 -50 -18 -57 -147 -171 -40 -35 -96 -91
-124 -123 -67 -77 -106 -103 -173 -117 -120 -24 -190 15 -220 122 -33 118 -66
478 -111 1215 -25 413 -49 767 -53 787 l-7 37 -110 -50 c-102 -46 -115 -49
-172 -46 -74 5 -126 30 -165 79 -27 33 -30 44 -45 202 -8 91 -12 181 -9 199 3
18 21 47 39 65 29 29 41 32 147 46 63 8 147 17 185 21 106 9 113 12 120 44 8
38 91 140 135 165 44 26 137 27 174 3 47 -31 74 -69 81 -114 l6 -45 47 6 c26
3 114 8 195 12 l148 6 14 28 c38 74 226 193 347 220 97 22 184 -24 206 -110 6
-23 7 -218 4 -500 l-5 -463 69 8 c38 4 73 11 78 15 5 5 4 170 -2 387 -11 374
-11 379 11 467 25 104 51 138 118 156 55 15 130 8 164 -14 15 -10 33 -32 40
-49 7 -18 35 -233 61 -478 l48 -447 81 -4 c61 -3 92 -10 119 -26 l37 -22 -5
67 c-15 180 -22 796 -11 856 8 41 68 115 119 147 19 11 103 45 187 76 232 83
332 84 374 4 9 -17 17 -30 19 -30 23 0 419 147 441 164 53 41 100 45 162 15z
m-172 -836 c-34 -7 -339 -83 -363 -89 -22 -6 -23 -4 -20 37 l3 44 70 6 c84 7
339 9 310 2z m162 1 c-3 -3 -12 -4 -19 -1 -8 3 -5 6 6 6 11 1 17 -2 13 -5z
m-2745 -229 c3 -33 5 -62 3 -63 -2 -2 -21 -6 -43 -9 l-39 -5 -10 61 -10 61 31
9 c54 16 60 11 68 -54z m5421 -2362 c88 -61 164 -158 236 -301 156 -313 225
-488 243 -622 15 -113 7 -151 -44 -207 -53 -57 -62 -61 -151 -73 -64 -9 -87
-8 -165 10 -84 18 -126 20 -504 20 -405 0 -894 -14 -993 -28 l-50 -7 3 -110
c2 -61 -11 -297 -27 -525 -17 -228 -29 -416 -27 -417 1 -2 129 37 284 87 458
146 700 211 947 254 113 20 158 20 199 1 64 -31 64 -28 111 -604 55 -660 56
-651 -85 -725 -50 -26 -84 -38 -113 -37 -23 0 -222 22 -442 50 -292 36 -451
51 -590 55 -104 4 -231 9 -282 12 l-92 6 5 -84 c4 -45 1 -191 -5 -323 -6 -132
-14 -386 -18 -564 -6 -315 -6 -323 13 -318 10 3 136 38 279 77 254 70 772 237
1190 383 198 70 210 76 232 110 30 48 74 69 154 75 113 8 155 -26 179 -143 6
-33 47 -206 91 -384 49 -201 79 -344 79 -378 0 -130 -68 -281 -154 -339 -60
-42 -116 -49 -244 -29 -76 11 -123 13 -182 6 -62 -7 -103 -5 -192 10 -99 16
-173 19 -589 19 -262 0 -556 -3 -655 -6 l-179 -7 8 -136 c4 -75 5 -175 2 -223
-15 -210 -66 -279 -226 -307 -134 -23 -206 -7 -241 54 -10 18 -38 143 -65 294
-32 175 -52 265 -61 269 -7 2 -40 -3 -72 -13 -41 -13 -77 -16 -119 -12 -111
10 -156 58 -156 169 0 82 8 93 155 191 58 38 108 73 113 77 4 3 3 38 -2 76
-22 151 -161 1430 -161 1475 0 5 -38 20 -84 34 -97 30 -130 52 -145 98 -17 50
-15 130 3 168 10 20 50 60 101 99 l84 65 1 80 c0 44 -9 379 -20 745 -11 366
-21 771 -22 900 -2 301 4 324 100 420 37 36 95 80 129 98 102 54 620 234 683
238 30 1 73 6 96 10 52 8 103 -14 128 -58 15 -24 19 -49 17 -118 l-1 -87 87
44 c74 36 729 272 873 314 25 7 72 35 106 61 34 26 72 52 85 58 36 14 99 3
142 -27z m-2493 -250 c30 -18 95 -100 110 -137 18 -48 11 -76 -64 -255 -211
-500 -265 -666 -431 -1336 -102 -411 -188 -790 -289 -1270 -104 -494 -99 -472
-230 -915 -139 -467 -212 -746 -228 -873 -10 -83 -9 -114 17 -314 17 -139 25
-239 21 -267 -14 -89 -201 -312 -283 -336 -54 -17 -106 -6 -138 29 -18 19
-300 681 -871 2047 -465 1110 -851 2039 -860 2062 -10 32 -12 53 -5 77 11 42
477 678 553 756 73 74 108 93 180 93 99 1 145 -52 207 -239 48 -144 80 -270
296 -1175 91 -382 184 -762 206 -845 84 -312 268 -946 278 -957 3 -4 49 781
102 1745 103 1877 96 1793 151 1829 13 8 111 47 218 86 259 94 584 176 803
201 169 19 215 18 257 -6z m-3801 -429 c119 -33 193 -122 205 -244 3 -30 49
-262 102 -515 87 -418 110 -555 254 -1510 l159 -1050 160 -678 c156 -659 160
-679 149 -729 -26 -111 -139 -257 -395 -509 -230 -226 -282 -263 -400 -279
-133 -19 -177 -5 -233 71 -40 56 -47 104 -60 429 -7 157 -13 286 -14 287 -1 2
-18 -2 -37 -7 -19 -6 -141 -22 -272 -35 l-238 -26 -360 -115 c-307 -98 -371
-122 -432 -161 -40 -25 -73 -46 -73 -47 -9 -8 20 -202 40 -269 27 -93 35 -195
18 -237 -26 -65 -101 -90 -277 -93 -120 -3 -130 5 -201 153 -50 102 -57 125
-67 212 l-10 97 -37 -1 c-45 0 -89 21 -134 67 -74 74 -55 174 55 290 l38 40
-34 450 c-38 496 -43 540 -86 895 -34 287 -67 528 -114 842 -36 240 -48 360
-65 658 -6 102 -27 430 -46 730 -20 300 -33 565 -30 589 10 77 26 120 57 156
42 47 140 111 184 119 19 4 160 75 313 158 242 133 283 152 322 152 90 -1 178
-72 204 -167 47 -164 45 -584 -5 -1507 -23 -428 -32 -691 -34 -980 -2 -316
-10 -518 -39 -1013 -21 -341 -36 -625 -34 -633 2 -9 243 220 578 547 316 308
588 567 604 576 32 17 78 21 122 10 l30 -8 -3 58 c-2 32 -12 276 -23 543 -12
282 -50 899 -91 1475 -38 545 -70 1018 -71 1052 -2 99 41 144 141 150 31 1 70
7 86 12 17 5 32 10 34 10 3 1 30 -6 60 -15z m6601 -1564 c0 -5 -4 -10 -10 -10
-5 0 -10 5 -10 10 0 6 5 10 10 10 6 0 10 -4 10 -10z m3483 -2687 c-7 -2 -19
-2 -25 0 -7 3 -2 5 12 5 14 0 19 -2 13 -5z m1210 -374 c122 -81 204 -208 361
-562 100 -226 125 -314 126 -430 0 -170 -153 -253 -370 -201 -112 27 -1389 17
-1517 -11 -22 -5 -23 -9 -23 -138 0 -72 -13 -310 -29 -527 -15 -217 -28 -395
-27 -396 0 0 154 48 341 108 532 170 973 273 1064 248 47 -12 86 -55 94 -102
4 -18 25 -260 47 -538 47 -569 46 -592 -14 -648 -39 -36 -118 -80 -159 -87
-18 -3 -214 17 -437 45 -388 49 -640 68 -918 70 -79 0 -83 -1 -77 -20 9 -29 8
-202 -4 -445 -6 -115 -13 -348 -17 -517 l-7 -306 234 64 c450 124 1454 458
1474 490 45 75 89 97 197 98 63 0 70 -2 102 -33 23 -23 36 -45 40 -74 4 -23
48 -208 98 -412 l91 -370 -17 -85 c-21 -105 -52 -174 -102 -229 -71 -79 -135
-97 -268 -74 -64 10 -122 13 -196 8 -74 -4 -132 -1 -190 9 -148 25 -283 29
-863 21 l-566 -7 2 -217 c2 -234 -6 -296 -49 -361 -39 -58 -80 -78 -190 -95
-117 -17 -164 -10 -206 33 -27 27 -32 45 -80 308 -29 153 -52 280 -53 281 -1
2 -38 -7 -84 -18 -74 -19 -88 -20 -142 -9 -101 22 -149 92 -133 195 8 55 34
81 169 173 119 80 111 22 61 452 -20 168 -54 483 -76 700 -22 217 -42 414 -45
436 l-6 41 -81 24 c-125 35 -158 75 -158 194 0 67 21 97 122 175 l85 65 -4 95
c-13 351 -43 1500 -43 1666 0 275 18 326 150 425 81 61 118 77 433 188 281 99
341 113 455 113 39 -1 75 -22 99 -59 14 -22 18 -46 16 -115 -1 -48 0 -88 3
-88 3 0 40 18 82 40 66 33 672 253 858 311 36 11 86 38 125 67 75 57 82 60
135 61 30 1 53 -7 87 -30z m-4436 -440 c57 -15 117 -70 133 -124 16 -54 29
-423 38 -1045 l7 -516 624 704 c343 387 635 711 649 720 35 23 110 22 146 -1
33 -22 103 -127 116 -176 18 -68 130 -701 130 -736 0 -48 -24 -91 -61 -110
-16 -9 -71 -32 -121 -51 -82 -31 -143 -71 -604 -399 -281 -201 -522 -373 -535
-384 l-22 -18 78 -149 c313 -597 623 -1047 1157 -1675 97 -115 97 -172 -1
-374 -118 -245 -552 -1019 -609 -1086 -77 -90 -210 -50 -278 83 -14 27 -40
115 -59 196 -19 81 -40 165 -46 187 -16 61 -569 1899 -575 1910 -2 6 -2 -96 1
-225 5 -256 22 -501 90 -1330 25 -299 45 -576 45 -616 0 -124 -36 -203 -113
-248 -51 -30 -150 -48 -203 -36 -54 12 -113 79 -141 161 -13 35 -75 285 -139
554 -108 459 -122 527 -208 1065 l-93 575 -12 -60 c-31 -157 -158 -645 -201
-775 -84 -252 -185 -457 -357 -719 -210 -321 -381 -500 -610 -637 -16 -10 -18
-28 -21 -170 -2 -154 -3 -160 -30 -204 -35 -56 -71 -77 -155 -89 -103 -15
-130 -4 -425 172 -486 288 -838 693 -997 1148 -68 194 -91 314 -130 678 l-38
342 27 247 c15 136 45 335 66 442 21 107 52 285 69 395 17 110 36 232 42 270
20 126 88 311 190 515 105 209 253 462 359 613 88 124 229 265 302 301 l57 28
3 158 3 159 29 30 c73 76 206 89 362 36 76 -25 94 -37 265 -179 327 -271 522
-501 723 -850 114 -196 255 -504 296 -644 l20 -67 -5 60 c-27 297 -36 479 -46
920 -11 482 -11 513 6 548 21 44 131 130 379 296 173 116 244 156 311 177 51
16 57 16 112 3z m-4850 -525 c28 -5 53 -22 94 -64 78 -80 138 -207 310 -655
272 -712 362 -971 549 -1581 l83 -271 36 -13 c76 -26 157 -70 170 -92 24 -39
30 -87 21 -174 -10 -96 -32 -136 -84 -155 l-33 -12 188 -745 c159 -631 187
-751 180 -781 -5 -20 -54 -142 -108 -271 -55 -129 -126 -302 -159 -385 -52
-131 -65 -156 -110 -201 -41 -42 -60 -54 -103 -63 -139 -30 -241 9 -289 111
-22 45 -69 309 -162 908 -119 764 -153 975 -186 1145 -20 99 -38 183 -42 186
-4 3 -37 1 -73 -5 l-65 -11 100 -805 100 -805 -20 -40 c-25 -52 -66 -71 -178
-83 -86 -10 -97 -8 -324 39 -129 27 -264 58 -301 69 -133 40 -221 114 -237
198 -4 20 1 272 11 559 10 288 16 526 12 529 -3 3 -58 -26 -121 -65 -135 -84
-163 -95 -222 -88 -52 5 -143 48 -176 82 -45 47 -47 84 -16 260 15 88 33 216
38 285 20 241 57 356 131 410 42 30 76 37 338 65 73 8 135 16 137 18 2 2 77
423 166 937 l163 933 -20 252 c-22 274 -20 307 23 348 25 24 103 49 129 41 6
-1 29 -6 50 -10z m-2228 -292 c28 -22 77 -53 108 -67 287 -134 302 -143 395
-233 182 -175 350 -392 424 -547 90 -190 104 -243 122 -473 18 -232 16 -250
-49 -447 -75 -226 -180 -406 -310 -532 -30 -28 -139 -121 -243 -207 -175 -143
-197 -158 -293 -197 -62 -26 -103 -48 -103 -57 0 -23 105 -231 165 -327 86
-138 159 -230 274 -349 171 -175 332 -295 556 -412 137 -71 181 -111 202 -183
19 -66 14 -97 -37 -255 -21 -67 -69 -224 -105 -349 -36 -126 -86 -284 -111
-350 -52 -138 -162 -368 -196 -410 -45 -54 -121 -63 -185 -21 -32 20 -17 -11
-578 1276 -258 593 -472 1074 -476 1070 -10 -11 -33 -914 -32 -1262 1 -168 6
-359 12 -425 6 -66 12 -204 14 -306 l2 -186 -42 -56 c-77 -101 -176 -148 -270
-127 -71 16 -109 38 -127 73 -10 18 -35 142 -60 292 l-42 260 -128 -310 c-70
-171 -142 -343 -159 -384 -39 -96 -87 -145 -163 -167 -148 -43 -276 17 -314
147 -14 47 -103 585 -200 1209 -116 749 -164 1005 -185 996 -6 -2 -37 -7 -68
-11 -36 -5 -57 -12 -57 -20 0 -7 43 -357 95 -778 52 -421 95 -783 95 -804 0
-50 -32 -101 -74 -118 -19 -8 -73 -19 -120 -24 -83 -10 -94 -8 -323 40 -313
65 -368 82 -446 136 -41 29 -81 89 -92 140 -6 28 15 702 30 986 l6 108 -133
-83 c-131 -82 -134 -83 -198 -83 -113 0 -226 73 -237 151 -2 22 7 104 21 184
15 80 33 217 42 305 24 259 63 363 157 412 19 9 108 24 234 38 113 13 207 26
210 29 4 3 80 426 169 938 l163 932 -21 261 c-21 258 -21 262 -2 301 24 49 71
74 142 74 71 0 112 -21 172 -87 70 -79 128 -206 295 -642 278 -725 360 -961
546 -1570 l84 -274 42 -19 c37 -16 121 -53 147 -66 4 -3 5 22 2 54 -28 260
-53 752 -81 1561 -16 476 -20 714 -14 738 13 45 26 59 195 203 245 207 293
234 551 307 88 25 128 12 186 -59 l43 -53 22 36 c48 75 152 124 249 116 42 -3
61 -11 102 -43z m-5469 -541 c56 -28 89 -84 100 -171 5 -41 14 -379 20 -750 6
-371 12 -691 13 -710 2 -33 25 -8 618 660 339 382 628 706 643 719 31 29 107
35 151 11 36 -19 100 -110 119 -168 30 -95 140 -735 132 -773 -10 -55 -45 -82
-169 -131 -108 -43 -133 -59 -639 -422 -291 -207 -528 -380 -528 -383 0 -12
167 -327 237 -448 269 -464 530 -828 969 -1349 137 -162 133 -201 -63 -571
-194 -367 -489 -883 -531 -927 -30 -33 -95 -45 -146 -28 -20 6 -54 33 -80 61
-52 57 -69 103 -120 324 -27 118 -581 1979 -601 2020 -3 6 -3 -98 0 -230 5
-257 20 -477 90 -1332 25 -299 45 -568 45 -599 0 -164 -73 -260 -216 -283
-139 -22 -201 26 -254 199 -16 52 -79 307 -139 565 -110 468 -111 473 -260
1410 -180 1128 -172 1069 -216 1605 -16 187 -35 763 -35 1053 0 205 0 205 144
312 117 86 306 214 422 286 126 77 210 92 294 50z m11583 -4595 c31 -12 97
-78 97 -95 0 -5 17 -3 38 4 20 7 89 18 152 25 111 11 118 10 210 -15 52 -14
149 -37 215 -51 146 -31 217 -54 314 -102 329 -161 621 -522 819 -1012 137
-338 192 -543 232 -855 63 -504 79 -718 60 -850 -35 -252 -174 -681 -397
-1224 -104 -255 -130 -300 -316 -541 -137 -176 -217 -262 -403 -430 -413 -371
-557 -439 -703 -328 -80 61 -290 367 -371 541 l-32 67 -79 868 c-99 1090 -170
1621 -299 2238 -68 324 -80 394 -80 477 0 73 -4 104 -16 122 -9 14 -29 87 -44
162 -26 127 -28 134 -33 93 -13 -99 -19 -356 -37 -1603 l-19 -1302 23 -50 c36
-79 100 -156 298 -361 208 -215 219 -233 189 -317 -24 -67 -562 -1055 -590
-1083 -13 -13 -41 -29 -62 -35 -50 -15 -105 4 -134 47 -11 16 -227 490 -479
1052 -253 562 -461 1021 -462 1019 -1 -1 103 -405 232 -897 255 -972 251 -951
196 -1003 -46 -43 -172 -105 -231 -113 -39 -5 -121 -39 -300 -126 -233 -113
-249 -119 -297 -115 -68 5 -163 52 -186 92 -12 23 -20 87 -33 270 -9 132 -19
276 -22 320 l-6 80 -25 -55 c-13 -30 -84 -201 -158 -380 -160 -388 -169 -400
-306 -430 -101 -23 -203 19 -253 104 -29 50 -72 289 -219 1236 -99 630 -164
1001 -180 1017 -5 5 -125 -13 -133 -20 -2 -2 40 -348 92 -768 53 -420 96 -784
97 -809 2 -56 -23 -105 -63 -126 -17 -8 -72 -20 -123 -26 -90 -10 -99 -9 -297
31 -368 76 -439 100 -514 176 -67 67 -67 61 -44 659 10 291 18 531 15 533 -2
2 -62 -32 -132 -75 -149 -92 -182 -101 -264 -73 -30 11 -56 18 -57 17 -2 -1 2
-18 7 -37 22 -75 8 -178 -47 -344 -58 -178 -111 -259 -589 -895 -435 -580
-656 -851 -758 -929 -71 -55 -178 -77 -253 -50 -20 6 -141 126 -341 334 -346
361 -345 359 -317 453 21 71 88 136 200 197 50 26 91 49 93 51 2 1 -33 183
-77 405 -62 314 -101 553 -175 1074 l-96 670 -36 575 c-33 519 -35 593 -27
761 8 153 13 193 29 220 16 29 49 49 204 126 102 51 201 97 221 103 44 12 49
29 49 169 0 53 5 139 10 191 9 85 13 97 41 126 16 17 76 53 132 80 l102 49
125 -1 c107 0 138 -4 215 -28 229 -70 507 -232 670 -391 80 -78 237 -289 291
-390 24 -44 52 -114 63 -155 24 -90 66 -579 57 -653 -30 -221 -216 -481 -513
-717 -24 -18 -43 -36 -43 -39 0 -4 46 -47 102 -96 256 -225 418 -398 510 -545
23 -38 45 -69 48 -70 9 0 48 259 61 400 14 154 40 262 77 315 46 68 92 83 319
107 109 11 201 23 204 27 3 3 79 427 168 941 l162 935 -21 245 c-11 135 -18
261 -15 281 8 44 48 86 96 99 108 31 196 -15 280 -147 56 -90 80 -145 231
-537 285 -744 373 -995 553 -1586 48 -157 91 -290 96 -296 5 -6 42 -23 84 -39
46 -18 87 -42 107 -63 l33 -33 0 -107 c0 -81 -5 -115 -17 -138 -19 -34 -58
-64 -84 -64 -11 0 -15 -6 -12 -17 81 -332 304 -1201 306 -1194 2 5 -6 86 -17
178 -11 92 -30 274 -41 403 -59 664 -222 2241 -272 2635 -43 329 -43 345 2
389 30 30 45 37 109 47 87 13 147 8 182 -14 14 -9 319 -453 679 -987 359 -533
655 -969 656 -967 1 1 -13 92 -31 202 -19 110 -63 380 -99 600 -45 275 -102
566 -181 929 -63 290 -115 545 -115 565 0 45 24 137 41 158 47 56 671 404 774
432 57 16 112 14 152 -6 44 -21 106 -98 128 -160 9 -26 20 -56 23 -65 6 -15
42 8 207 132 110 83 218 159 240 170 46 23 112 26 158 6z"/>
<path d="M13799 12357 c-81 -132 -194 -393 -243 -562 -62 -215 -81 -366 -106
-835 -11 -206 -24 -402 -29 -435 -8 -54 14 -399 34 -544 16 -112 129 -374 243
-566 109 -182 189 -264 299 -305 57 -22 313 -90 337 -90 26 0 150 240 222 428
97 255 159 510 184 765 8 77 11 215 7 395 -7 400 -35 570 -132 812 -115 287
-318 592 -532 802 -50 49 -94 80 -166 116 l-98 50 -20 -31z"/>
<path d="M11521 10849 c-1 -123 0 -127 21 -132 12 -4 24 -4 26 -2 3 2 -7 62
-21 132 l-25 128 -1 -126z"/>
<path d="M8692 11952 c-10 -7 -12 -164 -10 -753 l3 -744 105 105 c126 127 221
257 295 405 66 132 85 203 85 310 0 80 -16 291 -25 332 -12 52 -256 278 -355
328 -51 26 -76 30 -98 17z"/>
<path d="M6811 10354 l-1 -132 26 -6 c15 -4 27 -6 29 -4 1 2 -11 64 -25 138
l-28 135 -1 -131z"/>
<path d="M7881 9749 c-1 -20 -49 -65 -78 -74 -13 -3 -23 -12 -23 -18 1 -15
238 -944 239 -935 1 3 -17 131 -38 285 -22 153 -52 379 -66 503 -26 231 -32
268 -34 239z"/>
<path d="M15505 7168 c2 -7 47 -168 99 -358 142 -515 149 -564 187 -1248 29
-536 30 -584 20 -877 -6 -170 -10 -373 -9 -450 0 -139 -20 -316 -70 -592 l-18
-102 57 50 c226 195 431 525 553 889 94 280 110 428 101 900 -7 350 -7 357
-41 523 -41 205 -63 280 -120 415 -72 168 -168 325 -283 466 -82 99 -244 255
-316 303 -79 53 -166 96 -160 81z"/>
<path d="M8514 5703 c6 -348 24 -854 31 -861 4 -5 129 73 231 143 155 109 240
223 290 390 26 88 23 215 -7 285 -41 98 -102 190 -183 277 -107 114 -146 133
-272 133 l-97 0 7 -367z"/>
<path d="M11351 5025 c-1 -146 3 -165 35 -165 20 0 23 4 19 23 -3 12 -16 76
-29 142 l-24 120 -1 -120z"/>
<path d="M8758 4399 c-54 -25 -109 -43 -143 -46 -42 -4 -55 -10 -55 -22 0 -9
16 -347 35 -751 19 -404 35 -741 35 -748 0 -16 58 24 200 137 126 99 268 238
335 325 58 77 126 204 146 276 21 75 16 214 -10 300 -45 150 -157 325 -283
447 -56 53 -151 123 -167 123 -4 0 -45 -19 -93 -41z"/>
</g>
</svg>
